<svg width="242" height="146" viewBox="0 0 242 146" fill="none" xmlns="http://www.w3.org/2000/svg">
<path d="M82.31 74.9904C68.04 86.5804 76.71 93.9004 91.68 94.6304C103.36 95.2704 115.09 93.6604 126.55 91.4304C134.19 89.8504 141.84 88.0404 148.97 85.2904C165.82 78.6404 202.39 59.3704 193.12 37.1804C190.29 30.7204 184.59 25.9604 177.92 23.6204C172.71 21.5204 167.09 20.2004 161.53 19.4404C125.34 14.7004 80.94 25.2404 47.6 39.5304C33.13 45.7304 18.99 52.9204 5.72998 61.4504C11.93 56.5204 18.52 52.0704 25.28 47.9104C60.98 26.0304 102.2 12.4904 144.27 11.4404C154.38 11.5004 164.84 12.2204 174.59 15.0804C176.43 15.4404 178.75 16.4404 180.52 17.0704C182.46 17.7604 184.51 18.6504 186.39 19.7804C198.08 26.3004 205.47 41.4704 199.43 54.4304C191.46 72.1804 168.3 84.1604 150.87 90.5004C143.19 93.1304 135.33 94.7804 127.36 96.0104C115.49 97.7304 103.39 98.8304 91.41 97.3704C75.79 95.8104 65.75 86.1204 82.31 75.0004V74.9904Z" fill="url(#paint0_linear_923_11369)"/>
<path d="M159.99 65.17C176.11 48.05 144.61 47.51 133.95 47.63C124.97 47.77 116.17 49.47 107.43 51.52C85.11 57.28 60.89 65.95 44.45 82.56C43.01 84.02 41.62 85.73 40.36 87.33C37.25 92.21 34.52 98.22 35.72 103.96C37.62 111.97 45.37 116.23 53.03 119.01C80.35 127.9 114.18 122.51 142.2 117.69C130.57 121.47 118.63 124.22 106.56 126.22C94.4 128.14 81.97 129.29 69.64 128.35C51.25 127.26 23.38 118.46 29.36 94.8C31.09 88.21 34.63 82.46 39.32 77.67C54.97 61.95 76.16 53.68 97.2 48.14C112.21 44.45 127.83 42.18 143.26 44.36C155.03 45.65 175.91 51.53 160 65.18L159.99 65.17Z" fill="black"/>
<path d="M85.0601 110.82C126.2 110.82 209.65 87.1298 230.69 49.6698C237.29 38.3598 238.32 22.9198 227.19 14.1798C218.91 6.80984 208.61 2.96984 197.6 0.339844C211.38 1.34984 230.43 8.65984 237.82 21.1598C245.77 36.2698 237.67 54.1198 227.05 65.6098C209.4 84.6498 184.57 95.1099 160.22 102.55C135.99 109.63 110.26 114.27 85.05 110.81L85.0601 110.82Z" fill="black"/>
<path d="M128 33.8301C104.67 37.1401 81.98 44.6001 60.69 54.5501C46.65 61.0001 33.53 69.6701 22.78 80.7501C13.65 90.3701 2.42004 105.51 10 118.65C17.57 130.41 35.91 134.52 49.12 136.8C94.87 143.82 143.77 132.07 187.01 117.16C194.45 114.53 201.84 111.78 209.11 108.69C195.16 116.19 180.52 122.34 165.63 127.75C128.21 140.88 87.78 149.59 48.04 143.65C32.44 141.09 13.1 136.55 4.07004 122.21C-5.52996 106.06 6.92004 87.5501 18.38 76.3901C29.91 64.9901 43.91 56.4501 58.81 50.3301C80.8 41.2601 104.2 34.9401 128.01 33.8401L128 33.8301Z" fill="url(#paint1_linear_923_11369)"/>
<path d="M153.77 64.4196C155.19 56.5996 141.65 52.8096 123.53 55.9596C105.41 59.1096 89.58 67.9996 88.16 75.8096C86.74 83.6296 100.28 87.4196 118.4 84.2696C136.52 81.1196 152.35 72.2296 153.77 64.4196Z" fill="black"/>
<path d="M106.43 86.3699C98.48 86.3699 92.16 84.7399 89.11 81.6699C87.44 79.9799 86.77 77.8999 87.18 75.6399C88.69 67.3199 104.58 58.2399 123.36 54.9799C136.78 52.6499 148.34 54.0599 152.82 58.5699C154.49 60.2599 155.16 62.3399 154.75 64.5999C153.24 72.9199 137.35 81.9999 118.57 85.2599C114.28 86.0099 110.17 86.3699 106.43 86.3699ZM135.53 55.8699C131.89 55.8699 127.88 56.2199 123.71 56.9499C106.3 59.9699 90.48 68.6999 89.15 75.9999C88.86 77.6099 89.32 79.0399 90.54 80.2599C94.51 84.2599 105.64 85.4799 118.24 83.2899C135.65 80.2699 151.47 71.5399 152.8 64.2399C153.09 62.6299 152.63 61.1999 151.41 59.9799C148.75 57.2999 142.89 55.8699 135.54 55.8699H135.53Z" fill="url(#paint2_linear_923_11369)"/>
<defs>
<linearGradient id="paint0_linear_923_11369" x1="5.71998" y1="54.7304" x2="201.58" y2="54.7304" gradientUnits="userSpaceOnUse">
<stop stop-color="#1DA7FD"/>
<stop offset="1" stop-color="#08F5DA"/>
</linearGradient>
<linearGradient id="paint1_linear_923_11369" x1="0.630045" y1="89.6801" x2="209.1" y2="89.6801" gradientUnits="userSpaceOnUse">
<stop stop-color="#1DA7FD"/>
<stop offset="1" stop-color="#08F5DA"/>
</linearGradient>
<linearGradient id="paint2_linear_923_11369" x1="87.06" y1="70.1199" x2="154.88" y2="70.1199" gradientUnits="userSpaceOnUse">
<stop stop-color="#1DA7FD"/>
<stop offset="1" stop-color="#08F5DA"/>
</linearGradient>
</defs>
</svg>
