<svg width="242" height="146" viewBox="0 0 242 146" fill="none" xmlns="http://www.w3.org/2000/svg">
<path d="M82.31 75.0002C68.04 86.5902 76.71 93.9102 91.68 94.6402C103.36 95.2802 115.09 93.6702 126.55 91.4402C134.19 89.8602 141.84 88.0502 148.97 85.3002C165.82 78.6502 202.39 59.3802 193.12 37.1902C190.29 30.7302 184.59 25.9702 177.92 23.6302C172.71 21.5302 167.09 20.2102 161.53 19.4502C125.34 14.7102 80.94 25.2502 47.6 39.5402C33.13 45.7402 18.99 52.9301 5.72998 61.4601C11.93 56.5301 18.52 52.0802 25.28 47.9202C60.98 26.0402 102.2 12.5002 144.27 11.4502C154.38 11.5102 164.84 12.2301 174.59 15.0901C176.43 15.4501 178.75 16.4502 180.52 17.0802C182.46 17.7702 184.51 18.6602 186.39 19.7902C198.08 26.3102 205.47 41.4802 199.43 54.4402C191.46 72.1902 168.3 84.1702 150.87 90.5102C143.19 93.1402 135.33 94.7901 127.36 96.0201C115.49 97.7401 103.39 98.8402 91.41 97.3802C75.79 95.8202 65.75 86.1302 82.31 75.0102V75.0002Z" fill="url(#paint0_linear_923_11372)"/>
<path d="M159.99 65.17C176.11 48.05 144.61 47.5101 133.95 47.6301C124.97 47.7701 116.17 49.47 107.43 51.52C85.11 57.28 60.89 65.95 44.45 82.56C43.01 84.02 41.62 85.7301 40.36 87.3301C37.25 92.2101 34.52 98.22 35.72 103.96C37.62 111.97 45.37 116.23 53.03 119.01C80.35 127.9 114.18 122.51 142.2 117.69C130.57 121.47 118.63 124.22 106.56 126.22C94.4 128.14 81.97 129.29 69.64 128.35C51.25 127.26 23.38 118.46 29.36 94.8C31.09 88.21 34.63 82.46 39.32 77.67C54.97 61.95 76.16 53.6801 97.2 48.1401C112.21 44.4501 127.83 42.18 143.26 44.36C155.03 45.65 175.91 51.53 160 65.18L159.99 65.17Z" fill="white"/>
<path d="M85.0601 110.83C126.2 110.83 209.65 87.1396 230.69 49.6796C237.29 38.3696 238.32 23.9296 227.19 15.1896C218.91 7.81964 208.61 2.97961 197.6 0.349609C211.38 1.35961 230.43 8.66962 237.82 21.1696C245.77 36.2796 237.67 54.1296 227.05 65.6196C209.4 84.6596 184.57 95.1196 160.22 102.56C135.99 109.64 110.26 114.28 85.05 110.82L85.0601 110.83Z" fill="white"/>
<path d="M128 33.8301C104.67 37.1401 81.98 44.6 60.69 54.55C46.65 61 33.53 69.6701 22.78 80.7501C13.65 90.3701 2.42004 105.51 10 118.65C17.57 130.41 35.91 134.52 49.12 136.8C94.87 143.82 143.77 132.07 187.01 117.16C194.45 114.53 201.84 111.78 209.11 108.69C195.16 116.19 180.52 122.34 165.63 127.75C128.21 140.88 87.78 149.59 48.04 143.65C32.44 141.09 13.1 136.55 4.07004 122.21C-5.52996 106.06 6.92004 87.5501 18.38 76.3901C29.91 64.9901 43.91 56.4501 58.81 50.3301C80.8 41.2601 104.2 34.94 128.01 33.84L128 33.8301Z" fill="url(#paint1_linear_923_11372)"/>
<path d="M106.43 86.3699C98.48 86.3699 92.16 84.7399 89.11 81.6699C87.44 79.9799 86.77 77.9 87.18 75.64C88.69 67.32 104.58 58.2399 123.36 54.9799C136.78 52.6499 148.34 54.06 152.82 58.57C154.49 60.26 155.16 62.3399 154.75 64.5999C153.24 72.9199 137.35 82 118.57 85.26C114.28 86.01 110.17 86.3699 106.43 86.3699ZM135.53 55.88C131.89 55.88 127.88 56.2299 123.71 56.9599C106.3 59.9799 90.48 68.71 89.15 76.01C88.86 77.62 89.32 79.0499 90.54 80.2699C94.51 84.2699 105.64 85.4899 118.24 83.2999C135.65 80.2799 151.47 71.55 152.8 64.25C153.09 62.64 152.63 61.2099 151.41 59.9899C148.75 57.3099 142.89 55.88 135.53 55.88Z" fill="url(#paint2_linear_923_11372)"/>
<defs>
<linearGradient id="paint0_linear_923_11372" x1="5.71998" y1="54.7402" x2="201.58" y2="54.7402" gradientUnits="userSpaceOnUse">
<stop stop-color="#1DA7FD"/>
<stop offset="1" stop-color="#08F5DA"/>
</linearGradient>
<linearGradient id="paint1_linear_923_11372" x1="0.630045" y1="89.6901" x2="209.1" y2="89.6901" gradientUnits="userSpaceOnUse">
<stop stop-color="#1DA7FD"/>
<stop offset="1" stop-color="#08F5DA"/>
</linearGradient>
<linearGradient id="paint2_linear_923_11372" x1="87.06" y1="70.1199" x2="154.88" y2="70.1199" gradientUnits="userSpaceOnUse">
<stop stop-color="#1DA7FD"/>
<stop offset="1" stop-color="#08F5DA"/>
</linearGradient>
</defs>
</svg>
