<svg width="451" height="480" viewBox="0 0 451 480" fill="none" xmlns="http://www.w3.org/2000/svg">
<g clip-path="url(#clip0_621_8924)">
<path d="M207.18 215.66L207.2 215.22C208.47 186.69 192.89 168.18 168.11 168.18C146.75 168.18 133.34 179.29 117.29 199.76L133.67 218.7C145.42 204.76 153.05 198.23 162.77 198.23C172.49 198.23 179.05 205.2 177.86 218.05C176.69 230.68 169.39 238.95 150.64 254.63L96.4201 296.22L91.1201 322.79H203.92L205.15 293.83H141.41L167.16 274.67C193.67 253.77 206.04 241.14 207.18 215.66Z" fill="black"/>
<path d="M261.58 288.61H322.97L341.32 322.8H376.38L294.7 169.28H270.38L214.8 322.8H248.99L261.57 288.61H261.58ZM285.6 209.57L308.22 259H271.31L285.59 209.57H285.6Z" fill="black"/>
<path d="M157.95 146.49H161.57C166.42 146.49 171.82 143.71 174.71 138.35L174.75 138.28C177.3 133.55 176.44 130.27 172.08 130.27H164.62L148.31 153.44H153.39L157.96 146.49H157.95ZM165.59 134.88H168.86C170.97 134.88 171.58 136.1 170.24 138.39L170.2 138.46C169.04 140.45 166.81 141.97 164.54 141.97H160.93L165.59 134.89V134.88Z" fill="black"/>
<path d="M194.72 137.99L194.74 137.92C195.47 135.74 195.5 133.92 194.89 132.62C194.21 131.1 192.71 130.27 190.39 130.27H182.04L170.33 153.44H175.41L178.82 146.03H182.54L184.35 153.44H190.29L187.77 145.17C190.87 144.08 193.49 141.73 194.73 137.99H194.72ZM190.21 138.19L190.19 138.26C189.45 140.21 187.68 141.54 185.48 141.54H180.89L183.95 134.89H188.15C190.21 134.89 191.05 136.01 190.22 138.2L190.21 138.19Z" fill="black"/>
<path d="M218.6 141.86V141.79C219.12 135.2 215.52 129.88 209.91 129.88C204.3 129.88 198.6 135.27 196.63 141.86L196.61 141.93C194.64 148.52 198.17 153.84 205.32 153.84C212.47 153.84 218.09 148.45 218.61 141.86H218.6ZM213.85 141.86V141.93C213.34 145.9 210.2 149.14 206.27 149.14C202.34 149.14 200.38 145.83 201.38 141.86L201.4 141.79C202.4 137.82 205.57 134.58 208.97 134.58C212.37 134.58 214.35 137.89 213.85 141.86Z" fill="black"/>
<path d="M226.34 149.04C224.79 149.04 223.58 148.18 222.38 146.72L219.13 150.29C220.57 152.18 222.86 153.77 226.47 153.77C228.98 153.77 231.04 153.04 232.37 151.62C233.64 150.23 234.26 148.18 234.05 145.43L232.93 130.27H228.81L229.21 145.2C229.28 147.88 228.17 149.04 226.34 149.04Z" fill="black"/>
<path d="M250.81 130.28H237.03L239.83 153.44H257.4L256.14 148.91H244.12L243.31 144.05H253.27L252.07 139.51H242.56L241.78 134.81H252.07L250.81 130.28Z" fill="black"/>
<path d="M265.01 134.58C266.93 134.58 268.88 135.57 271.14 137.19L272.03 133.45C269.25 131.33 266.5 129.88 263.07 129.88C257.49 129.88 255.26 135.27 257.31 141.86L257.33 141.93C259.4 148.58 266.09 153.84 272.91 153.84C277.38 153.84 279.26 152.25 280.33 149.7L275.66 146.42C274.72 148.07 273.65 149.13 271.11 149.13C267.31 149.13 263.49 145.82 262.07 141.85L262.05 141.78C260.63 137.81 261.79 134.57 265.02 134.57L265.01 134.58Z" fill="black"/>
<path d="M274.94 134.98H280.8L291.65 153.44H296.72L285.03 134.98H290.89L287.61 130.28H272.48L274.94 134.98Z" fill="black"/>
<path d="M372.07 375.18C427.84 312.52 437.09 218.09 390.91 147.45C442.44 253.13 389.79 381.27 275.72 414.17C265.28 417.16 254.56 419.19 243.74 420.28C243.37 416.4 243.26 412.52 244.17 408.66C244.5 407.24 245.05 405.86 245.64 404.51C245.85 404.02 246.43 403.64 246.9 403.32C250.07 401.16 252.51 398.35 254.49 395.1C256.43 391.92 258.47 388.79 260.29 385.54C261.34 383.67 262.06 381.61 262.93 379.64C264.94 375.07 267.75 371.13 271.82 368.13C272.53 367.61 273.01 366.78 273.62 366.12C273.95 365.77 274.33 365.47 274.69 365.14C275.42 364.45 276.16 363.77 276.88 363.07C277.74 362.24 278.6 361.39 279.46 360.56C279.69 360.33 280.06 360.17 280.17 359.9C280.3 359.6 280.46 359.34 280.63 359.1C282.4 357.99 284.1 356.77 285.5 355.28C286.05 354.7 286.29 354.05 286.33 353.42C286.38 353.44 286.43 353.46 286.48 353.47C286.44 353.34 286.39 353.21 286.34 353.08C286.31 352.51 286.1 351.97 285.78 351.5C285.72 351.33 285.66 351.17 285.61 351C284.98 349.05 282.8 347.53 280.43 347.41C275.03 347.12 270.74 349.29 267.25 353.31C266.87 353.75 266.28 354.11 265.72 354.25C262.09 355.13 258.66 356.44 255.66 358.73C254.75 359.42 253.89 360.17 253.02 360.91C252.35 361.48 251.82 361.53 251.26 360.71C250.73 359.93 250.05 359.25 249.44 358.53C249.33 358.41 249.19 358.3 249.13 358.15C248.44 356.24 247.38 354.48 247.2 352.35C246.99 349.85 246.4 347.39 245.98 344.91C245.84 344.1 245.64 343.31 245.54 342.5C245.29 340.37 244.38 338.57 242.88 337.05C242.77 336.93 242.67 336.8 242.57 336.67C240.44 333.75 236.77 333.07 233.64 335.08C232.63 335.73 231.62 336.45 230.81 337.31C230.19 337.97 229.88 338.92 229.35 339.88C228.96 339.45 228.6 339.05 228.25 338.66C227.13 337.42 225.85 336.48 224.06 336.83C222.3 337.17 220.54 337.54 218.8 338.01C217.33 338.4 216.48 339.52 215.92 340.88C215.82 341.12 215.73 341.37 215.6 341.6C214.89 342.8 214.68 342.8 213.73 341.76C212.77 340.71 211.55 340.07 210.13 340.4C208.32 340.82 206.48 341.27 204.81 342.05C202.13 343.31 200.84 345.82 199.81 348.45C199.72 348.69 199.65 348.93 199.52 349.31C199.22 349.08 198.99 348.93 198.79 348.75C198.48 348.46 198.21 348.12 197.88 347.86C195.74 346.18 194.62 346.01 192.42 347.01C187.29 349.35 185.53 354.21 186.29 359.58C186.52 361.24 186.95 362.84 186.42 364.51C186.29 364.92 186.42 365.42 186.42 365.87C186.42 366.94 186.52 368.02 186.38 369.07C186.12 371.13 186 373.16 186.44 375.21C186.57 375.82 186.46 376.51 186.36 377.15C186.13 378.57 185.83 379.97 185.56 381.38V384.52C185.62 385 185.73 385.48 185.73 385.96C185.81 391.19 187.13 396.12 189.56 400.71C191.46 404.28 193.95 407.43 197.09 410.04C198.63 411.32 199.65 412.96 200.14 414.94C200.53 416.51 200.88 418.09 201.15 419.67C195.35 418.91 189.59 417.88 183.9 416.56C118.06 401.76 65.0999 350.68 46.6499 285.92C44.0299 276.48 41.8999 266.6 40.7699 256.84C36.4099 222.98 41.5099 187.9 54.7199 156.34C50.5799 163.39 47.0099 170.8 43.8499 178.41C21.4599 232.81 27.2299 297.5 58.1999 347.57C126.06 459.64 285.49 473.48 372.04 375.16L372.07 375.18Z" fill="black"/>
<path d="M13.41 269.07L16.74 268.95L16.23 255.34L12.9 255.47L13.09 260.46L0 260.95L0.13 264.56L13.22 264.07L13.41 269.07Z" fill="black"/>
<path d="M17.97 280.64L11.5 281.35L10.78 274.72L17.24 274.01L16.84 270.42L0.51001 272.21L0.91001 275.8L7.46001 275.08L8.19001 281.71L1.64001 282.43L2.03001 286.02L18.36 284.23L17.97 280.64Z" fill="black"/>
<path d="M6.44989 292.77L9.83989 292.14L11.2599 299.75L14.4199 299.16L12.9999 291.55L16.2799 290.94L17.8899 299.59L21.0499 299L18.7899 286.82L2.63989 289.82L4.91989 302.12L8.07989 301.53L6.44989 292.77Z" fill="black"/>
<path d="M24.63 312.24L6.76001 310.22L7.81001 313.75L11.77 314.14L13.75 320.8L10.65 323.29L11.73 326.91L25.58 315.44L24.63 312.25V312.24ZM16.45 318.65L15.2 314.47L20.93 315.04L16.45 318.65Z" fill="black"/>
<path d="M31.9201 333.58L22.4901 337.26L29.1201 326.41L27.9101 323.3L12.6001 329.28L13.9001 332.6L23.6301 328.8L16.7901 340.01L17.9101 342.88L33.2101 336.91L31.9201 333.58Z" fill="black"/>
<path d="M29.0599 354.98C31.6399 353.74 31.9099 351.53 31.2599 348.15C30.6899 345.27 30.6999 344.49 31.6799 344.02L31.7199 344C32.4399 343.66 33.3299 344.04 33.9199 345.29C34.5099 346.54 34.5899 348.09 34.2999 349.84L37.5699 350.36C38.0599 348.28 37.8499 346.11 36.8199 343.96C35.3699 340.93 32.5599 339.63 29.8699 340.91L29.8299 340.93C26.8899 342.34 26.9799 344.66 27.6499 348.01C28.1999 350.79 28.0199 351.5 27.1899 351.9L27.1499 351.92C26.2799 352.34 25.3699 351.78 24.7299 350.45C23.9199 348.76 23.9499 347.03 24.4099 345.17L21.1799 344.35C20.4399 346.89 20.7399 349.53 21.8199 351.77C23.3499 354.97 26.0699 356.42 29.0199 355.01L29.0599 354.99V354.98Z" fill="black"/>
<path d="M49.95 368.19L38.65 370.95L46.37 362.07L44.79 359.41L33.3 361.95L41.13 353.34L39.15 350.01L27.79 363.29L29.4 365.99L40.53 363.68L33.19 372.36L34.8 375.07L51.88 371.43L49.95 368.19Z" fill="black"/>
<path d="M44.23 382.95L47.02 380.92L51.57 387.18L54.17 385.29L49.62 379.03L52.31 377.07L57.49 384.18L60.08 382.29L52.79 372.27L39.52 381.94L46.88 392.05L49.48 390.16L44.23 382.95Z" fill="black"/>
<path d="M66.2001 389.64L61.3601 383.9L48.8101 394.5L51.1401 397.26L55.1601 393.87L56.9901 396.04L55.2401 402.12L57.9601 405.35L59.8501 398.5C61.7901 399.6 63.9801 399.62 66.0101 397.9L66.0501 397.87C67.2301 396.87 67.9001 395.66 68.0101 394.37C68.1401 392.85 67.5401 391.23 66.2001 389.64ZM63.5501 395.19L63.5101 395.22C62.4501 396.11 61.0801 395.95 59.9501 394.6L57.5901 391.8L61.1901 388.76L63.5101 391.5C64.6501 392.84 64.7301 394.18 63.5501 395.18V395.19Z" fill="black"/>
<path d="M82.3901 411.28L84.7101 408.89L74.9301 399.42L72.6201 401.81L76.2001 405.29L67.0901 414.69L69.6901 417.2L78.8001 407.8L82.3901 411.28Z" fill="black"/>
<path d="M91.5801 414.36C87.6901 411.11 82.4101 411.68 79.4201 415.27L79.3901 415.31C76.4001 418.89 76.7601 424.12 80.6501 427.37C84.5401 430.62 89.8201 430.05 92.8101 426.46L92.8401 426.42C95.8301 422.84 95.4601 417.61 91.5801 414.36ZM89.9101 424.03L89.8801 424.07C88.0701 426.23 85.0501 426.7 82.8201 424.84C80.5901 422.97 80.5101 419.85 82.3101 417.69L82.3401 417.65C84.1401 415.49 87.1701 415.02 89.4001 416.88C91.6301 418.75 91.7101 421.87 89.9101 424.03Z" fill="black"/>
<path d="M107.59 426.82L104.59 424.81L95.4299 438.45L105.23 445.02L107.07 442.3L100.27 437.73L107.59 426.82Z" fill="black"/>
<path d="M115.967 432.211L107.486 446.282L110.577 448.146L119.059 434.074L115.967 432.211Z" fill="black"/>
<path d="M121.57 443.36L123.22 440.28L131.06 444.48L132.61 441.59L121.59 435.67L113.83 450.15L117.01 451.86L120.02 446.25L126.92 449.96L128.48 447.06L121.57 443.36Z" fill="black"/>
<path d="M131.94 455.8L133.35 452.65L140.41 455.83L141.74 452.9L134.68 449.72L136.04 446.68L144.07 450.3L145.39 447.37L134.09 442.28L127.34 457.25L138.75 462.39L140.07 459.46L131.94 455.8Z" fill="black"/>
<path d="M140.98 463.21L142.33 463.74C141.95 465.03 140.91 465.5 139.34 465.06L139.08 466.55C141.7 467.53 143.59 466.94 144.73 464.06L145.89 461.11L142.35 459.72L140.97 463.21H140.98Z" fill="black"/>
<path d="M170.33 455.89L157.32 451.89L156.35 455.08L161.12 456.54L157.28 469.06L160.74 470.12L164.58 457.6L169.36 459.07L170.33 455.89Z" fill="black"/>
<path d="M180.33 464.89L173.84 463.41L175.28 457.08L171.76 456.27L168.11 472.28L171.63 473.09L173.1 466.66L179.59 468.14L178.12 474.57L181.65 475.37L185.3 459.36L181.78 458.56L180.33 464.89Z" fill="black"/>
<path d="M185.42 476.05L197.79 477.92L198.27 474.74L189.46 473.41L189.97 469.99L197.63 471.15L198.11 467.97L190.45 466.81L190.95 463.52L199.65 464.83L200.13 461.65L187.88 459.8L185.42 476.05Z" fill="black"/>
<path d="M218.2 472.37C218.08 474.97 216.68 476.24 214.47 476.14C212.26 476.04 211 474.59 211.12 471.92L211.56 462.64L207.95 462.47L207.5 471.85C207.27 476.68 209.85 479.27 214.25 479.48C218.66 479.69 221.56 477.38 221.8 472.42L222.24 463.16L218.63 462.99L218.18 472.39L218.2 472.37Z" fill="black"/>
<path d="M235.62 462.83L235.94 472.93L227.93 463.07L224.6 463.17L225.11 479.59L228.68 479.48L228.35 469.04L236.63 479.23L239.7 479.13L239.19 462.72L235.62 462.83Z" fill="black"/>
<path d="M245.71 462.062L242.114 462.381L243.566 478.747L247.162 478.428L245.71 462.062Z" fill="black"/>
<path d="M257.14 472.31L251.22 461.48L247.28 462.05L256.23 477.47L259.38 477.01L263.58 459.69L259.72 460.25L257.14 472.31Z" fill="black"/>
<path d="M271.12 471.51L270.38 468.14L277.94 466.47L277.25 463.33L269.68 465L268.96 461.75L277.56 459.85L276.87 456.71L264.76 459.38L268.31 475.43L280.53 472.73L279.83 469.59L271.12 471.51Z" fill="black"/>
<path d="M293.53 457.52V457.48C293.07 456 292.23 454.9 291.09 454.29C289.75 453.57 288.03 453.47 286.03 454.06L278.84 456.21L283.54 471.94L287 470.91L285.5 465.87L288.22 465.06L293.1 469.09L297.15 467.88L291.63 463.41C293.41 462.07 294.3 460.07 293.55 457.53L293.53 457.52ZM288.09 461.77L284.58 462.82L283.23 458.3L286.67 457.27C288.36 456.77 289.62 457.22 290.06 458.71V458.75C290.47 460.08 289.77 461.26 288.09 461.77Z" fill="black"/>
<path d="M309 458.18C307.99 455.5 305.81 455.04 302.38 455.41C299.47 455.73 298.68 455.65 298.3 454.64L298.28 454.6C298 453.85 298.45 453 299.75 452.52C301.04 452.03 302.6 452.1 304.32 452.52L305.12 449.31C303.09 448.65 300.91 448.66 298.67 449.51C295.53 450.7 293.99 453.39 295.04 456.17L295.06 456.21C296.21 459.26 298.53 459.36 301.93 458.99C304.75 458.68 305.44 458.92 305.76 459.78L305.78 459.82C306.12 460.72 305.49 461.58 304.11 462.11C302.35 462.77 300.63 462.6 298.82 461.98L297.73 465.13C300.2 466.08 302.85 466.01 305.18 465.13C308.5 463.88 310.18 461.29 309.03 458.24L309.01 458.2L309 458.18Z" fill="black"/>
<path d="M315.42 457.18L313.98 454.04L321.02 450.82L319.68 447.89L312.64 451.12L311.26 448.09L319.26 444.43L317.92 441.5L306.66 446.66L313.49 461.59L324.86 456.39L323.52 453.46L315.42 457.18Z" fill="black"/>
<path d="M328.64 450.14L325.26 451.89L326.99 455.22L328.28 454.55C329 455.68 328.67 456.78 327.31 457.67L328.26 458.84C330.72 457.51 331.52 455.7 330.1 452.95L328.64 450.14Z" fill="black"/>
<path d="M334.87 431.85L337.72 449.59L340.84 447.63L340.15 443.71L346.03 440.01L349.26 442.33L352.46 440.32L337.69 430.07L334.87 431.84V431.85ZM343.23 438L339.54 440.32L338.55 434.65L343.23 437.99V438Z" fill="black"/>
<path d="M353.46 419.08L359.53 427.17L347.3 423.7L344.64 425.7L354.5 438.84L357.35 436.7L351.08 428.35L363.71 431.92L366.17 430.08L356.31 416.94L353.46 419.08Z" fill="black"/>
<path d="M375.06 411.37C371.99 407.91 366.97 407.62 363.11 411.05L358.32 415.3L369.22 427.59L374.01 423.34C377.87 419.92 378.16 414.86 375.1 411.4L375.07 411.36L375.06 411.37ZM371.84 420.9L369.75 422.75L363.18 415.34L365.27 413.49C367.48 411.53 370.33 411.73 372.26 413.91L372.29 413.95C374.22 416.13 374.05 418.94 371.84 420.9Z" fill="black"/>
<path d="M387.43 405.84L384.89 403.51L390.12 397.8L387.75 395.63L382.52 401.34L380.06 399.09L386.01 392.6L383.64 390.43L375.27 399.56L387.38 410.66L395.83 401.44L393.46 399.27L387.43 405.84Z" fill="black"/>
<path d="M391.88 380.12L398.3 390.66L386.56 386.86L384.09 389.99L401.19 395.03L403.17 392.53L394.3 377.06L391.88 380.12Z" fill="black"/>
<path d="M407.91 380.46L405.05 378.53L409.39 372.12L406.73 370.32L402.39 376.73L399.63 374.86L404.56 367.58L401.9 365.78L394.96 376.03L408.56 385.24L415.57 374.89L412.91 373.08L407.91 380.46Z" fill="black"/>
<path d="M414.57 354.9L414.53 354.88C413.19 354.11 411.82 353.89 410.57 354.22C409.1 354.62 407.78 355.73 406.74 357.53L402.99 364.03L417.22 372.23L419.02 369.1L414.47 366.48L415.89 364.02L422.2 363.6L424.31 359.94L417.23 360.49C417.6 358.29 416.87 356.22 414.58 354.9H414.57ZM413.53 361.73L411.7 364.9L407.62 362.54L409.41 359.43C410.29 357.91 411.52 357.37 412.86 358.14L412.9 358.16C414.1 358.85 414.41 360.19 413.53 361.72V361.73Z" fill="black"/>
<path d="M424.83 326.61L421.73 325.37L416.68 338.01L416.71 338.03L415.01 341.54L419.2 348.01L411.56 348.66L409.72 352.46L421.42 351.12L427.25 353.95L428.83 350.69L422.94 347.84L416.97 338.13L419.77 339.25L421.63 334.61L433.79 339.47L435.13 336.11L422.97 331.25L424.83 326.61Z" fill="black"/>
<path d="M425.34 314.19L431.54 316.15L429.52 322.51L423.33 320.54L422.23 323.99L437.89 328.95L438.98 325.51L432.7 323.51L434.71 317.16L441 319.15L442.09 315.71L426.43 310.74L425.34 314.19Z" fill="black"/>
<path d="M427.963 304.368L427.069 307.865L442.987 311.935L443.881 308.437L427.963 304.368Z" fill="black"/>
<path d="M430.91 290.74L440.83 292.67L429.44 298.29L428.8 301.56L444.92 304.7L445.6 301.2L435.35 299.2L447.12 293.39L447.71 290.38L431.59 287.24L430.91 290.74Z" fill="black"/>
<path d="M440.55 270.62L439.76 277.71L442.86 278.06L443.26 274.45L445.59 274.71C446.14 275.69 446.34 276.89 446.19 278.2C445.87 281.09 443.45 282.9 440.46 282.57H440.41C437.64 282.26 435.56 279.92 435.85 277.31C436.06 275.42 436.79 274.37 437.98 273.23L435.5 270.66C433.87 272.2 432.88 273.89 432.55 276.82C432 281.76 435.4 285.8 440.04 286.32H440.09C444.92 286.86 448.87 283.76 449.44 278.68C449.77 275.7 448.86 273.26 447.63 271.42L440.54 270.63L440.55 270.62Z" fill="black"/>
<path d="M446.468 264.962L446.253 268.756L449.997 268.968L450.212 265.174L446.468 264.962Z" fill="black"/>
<path d="M297.38 79.8298C297.95 80.2098 298.52 80.5998 299.13 80.9198C303.55 83.2598 307.56 86.1798 311.34 89.4298C312.28 90.2398 312.56 90.8598 311.9 91.9198C311.61 92.3898 311.51 92.9798 311.37 93.5298C310.45 97.1898 310.63 100.92 310.79 104.64C310.8 104.96 311 105.27 311.21 105.87C311.65 105.23 311.89 104.83 312.19 104.47C313.23 103.19 314.24 101.88 315.34 100.65C316.53 99.3298 317.82 98.0998 319.15 96.7298C319.35 96.9298 319.76 97.3098 320.14 97.7198C327.04 105.05 333.11 113.01 338.36 121.6C342.34 128.12 345.6 134.94 347.64 142.34C348.35 144.93 347.73 146.59 345.61 148.25C342.89 150.38 340.41 152.85 338.01 155.34C337 156.39 336.44 157.88 335.67 159.16C335.8 159.24 335.93 159.33 336.06 159.41C336.18 159.39 336.31 159.39 336.41 159.34C339.22 157.65 342.3 157.25 345.51 157.26C346.26 157.26 347.1 156.91 347.74 156.48C348.7 155.84 349.18 156.1 349.82 156.94C350.53 157.87 351.37 158.8 352.34 159.44C354.75 161.03 356.58 163.04 357.61 165.75C357.75 166.13 357.94 166.49 358.17 167.03C358.36 166.7 358.44 166.61 358.46 166.5C358.54 166.19 358.6 165.87 358.65 165.55C359.52 159.79 358.18 154.43 354.92 149.75C353.05 147.07 352.87 144.79 353.79 141.72C358.76 125.23 357.02 109.42 348.43 94.4098C347.95 93.5698 346.75 92.8598 347.39 91.6698C347.88 90.7598 348.64 89.9998 349.29 89.1698C349.34 89.1098 349.41 89.0698 349.47 89.0098C351.17 87.5298 353.16 86.8998 355.39 86.8898C355.75 86.8898 356.12 86.6798 356.48 86.5698C356.31 86.1898 356.23 85.7098 355.95 85.4398C355.46 84.9698 354.87 84.5898 354.28 84.2498C349.86 81.7098 345.12 81.5798 340.27 82.4898C339.48 82.6398 338.95 82.5398 338.33 81.9698C334.25 78.1398 329.62 75.1398 324.41 73.0798C320.33 71.4698 316.14 70.4898 311.72 70.9998C308.91 71.3198 306.39 72.2998 304.44 74.4698C304.2 74.7398 303.67 74.8698 303.28 74.8598C301.82 74.8198 300.37 74.6298 298.92 74.6298C297.22 74.6298 296.33 75.3498 295.91 77.0398C295.59 78.3398 296.4 79.1698 297.4 79.8198L297.38 79.8298Z" fill="black"/>
<path d="M83.7401 165.53C83.7901 165.85 83.8501 166.17 83.9301 166.48C83.9601 166.59 84.0401 166.68 84.2201 167.01C84.4501 166.48 84.6401 166.11 84.7801 165.73C85.8101 163.02 87.6301 161.01 90.0501 159.42C91.0201 158.78 91.8601 157.86 92.5701 156.92C93.2101 156.08 93.6901 155.82 94.6501 156.46C95.2901 156.89 96.1301 157.24 96.8801 157.24C100.09 157.24 103.18 157.63 105.98 159.32C106.08 159.38 106.21 159.37 106.33 159.39C106.46 159.31 106.59 159.22 106.72 159.14C105.95 157.85 105.4 156.37 104.38 155.32C101.98 152.83 99.5001 150.35 96.7801 148.23C94.6601 146.57 94.0301 144.92 94.7501 142.32C96.7901 134.92 100.05 128.09 104.03 121.58C109.27 112.99 115.35 105.03 122.25 97.7001C122.63 97.3001 123.03 96.9101 123.24 96.7101C124.58 98.0801 125.86 99.3101 127.05 100.63C128.15 101.85 129.16 103.16 130.2 104.45C130.49 104.81 130.73 105.21 131.18 105.85C131.39 105.25 131.58 104.94 131.6 104.62C131.75 100.9 131.93 97.1701 131.02 93.5101C130.88 92.9601 130.78 92.3701 130.49 91.9001C129.83 90.8301 130.12 90.2101 131.05 89.4101C134.84 86.1501 138.84 83.2401 143.26 80.9001C143.87 80.5801 144.44 80.1901 145.01 79.8101C146.01 79.1501 146.82 78.3301 146.5 77.0301C146.08 75.3301 145.18 74.6201 143.49 74.6201C142.04 74.6201 140.58 74.8101 139.13 74.8501C138.74 74.8501 138.21 74.7301 137.97 74.4601C136.01 72.2901 133.5 71.3101 130.69 70.9901C126.27 70.4801 122.08 71.4601 118 73.0701C112.79 75.1301 108.16 78.1301 104.08 81.9601C103.47 82.5301 102.93 82.6301 102.14 82.4801C97.2901 81.5701 92.5501 81.7001 88.1301 84.2401C87.5401 84.5801 86.9501 84.9601 86.4601 85.4301C86.1801 85.7001 86.1001 86.1801 85.9301 86.5601C86.2901 86.6701 86.6601 86.8801 87.0201 86.8801C89.2501 86.8901 91.2401 87.5201 92.9401 89.0001C93.0001 89.0501 93.0801 89.1001 93.1201 89.1601C93.7601 89.9901 94.5201 90.7501 95.0201 91.6601C95.6601 92.8501 94.4601 93.5601 93.9801 94.4001C85.3901 109.41 83.6501 125.22 88.6201 141.71C89.5401 144.78 89.3601 147.05 87.4901 149.74C84.2301 154.42 82.8901 159.78 83.7601 165.54L83.7401 165.53Z" fill="black"/>
<path d="M172.76 90.4004L179.5 92.8903C179.95 93.0603 180.3 93.4103 180.47 93.8603L182.96 100.6C183.49 102.03 185.51 102.03 186.04 100.6L188.53 93.8603C188.7 93.4103 189.05 93.0603 189.5 92.8903L196.24 90.4004C197.67 89.8704 197.67 87.8503 196.24 87.3203L189.5 84.8304C189.05 84.6604 188.7 84.3103 188.53 83.8603L186.04 77.1204C185.51 75.6904 183.49 75.6904 182.96 77.1204L180.47 83.8603C180.3 84.3103 179.95 84.6604 179.5 84.8304L172.76 87.3203C171.33 87.8503 171.33 89.8704 172.76 90.4004Z" fill="black"/>
<path d="M201.49 67.7705L208.23 70.2605C208.68 70.4305 209.03 70.7805 209.2 71.2305L211.69 77.9705C212.22 79.4005 214.24 79.4005 214.77 77.9705L217.26 71.2305C217.43 70.7805 217.78 70.4305 218.23 70.2605L224.97 67.7705C226.4 67.2405 226.4 65.2205 224.97 64.6905L218.23 62.2005C217.78 62.0305 217.43 61.6805 217.26 61.2305L214.77 54.4905C214.24 53.0605 212.22 53.0605 211.69 54.4905L209.2 61.2305C209.03 61.6805 208.68 62.0305 208.23 62.2005L201.49 64.6905C200.06 65.2205 200.06 67.2405 201.49 67.7705Z" fill="black"/>
<path d="M94.3899 245.44L101.13 242.95C102.56 242.42 102.56 240.4 101.13 239.87L94.3899 237.38C93.9399 237.21 93.5899 236.86 93.4199 236.41L90.9299 229.67C90.3999 228.24 88.3799 228.24 87.8499 229.67L85.3599 236.41C85.1899 236.86 84.8399 237.21 84.3899 237.38L77.6499 239.87C76.2199 240.4 76.2199 242.42 77.6499 242.95L84.3899 245.44C84.8399 245.61 85.1899 245.96 85.3599 246.41L87.8499 253.15C88.3799 254.58 90.3999 254.58 90.9299 253.15L93.4199 246.41C93.5899 245.96 93.9399 245.61 94.3899 245.44Z" fill="black"/>
<path d="M268.08 47.1205L266.74 50.7305C266.65 50.9705 266.46 51.1605 266.22 51.2505L262.61 52.5905C261.84 52.8705 261.84 53.9605 262.61 54.2405L266.22 55.5805C266.46 55.6705 266.65 55.8605 266.74 56.1005L268.08 59.7105C268.36 60.4805 269.45 60.4805 269.73 59.7105L271.07 56.1005C271.16 55.8605 271.35 55.6705 271.59 55.5805L275.2 54.2405C275.97 53.9605 275.97 52.8705 275.2 52.5905L271.59 51.2505C271.35 51.1605 271.16 50.9705 271.07 50.7305L269.73 47.1205C269.45 46.3505 268.36 46.3505 268.08 47.1205Z" fill="black"/>
<path d="M60.2001 212.2L63.8101 213.54C64.0501 213.63 64.2401 213.82 64.3301 214.06L65.6701 217.67C65.9501 218.44 67.0401 218.44 67.3201 217.67L68.6601 214.06C68.7501 213.82 68.9401 213.63 69.1801 213.54L72.7901 212.2C73.5601 211.92 73.5601 210.83 72.7901 210.55L69.1801 209.21C68.9401 209.12 68.7501 208.93 68.6601 208.69L67.3201 205.08C67.0401 204.31 65.9501 204.31 65.6701 205.08L64.3301 208.69C64.2401 208.93 64.0501 209.12 63.8101 209.21L60.2001 210.55C59.4301 210.83 59.4301 211.92 60.2001 212.2Z" fill="black"/>
<path d="M68.7301 183.48L72.3401 184.82C72.5801 184.91 72.7701 185.1 72.8601 185.34L74.2001 188.95C74.4801 189.72 75.5701 189.72 75.8501 188.95L77.1901 185.34C77.2801 185.1 77.4701 184.91 77.7101 184.82L81.3201 183.48C82.0901 183.2 82.0901 182.11 81.3201 181.83L77.7101 180.49C77.4701 180.4 77.2801 180.21 77.1901 179.97L75.8501 176.36C75.5701 175.59 74.4801 175.59 74.2001 176.36L72.8601 179.97C72.7701 180.21 72.5801 180.4 72.3401 180.49L68.7301 181.83C67.9601 182.11 67.9601 183.2 68.7301 183.48Z" fill="black"/>
<path d="M362.59 250.77L366.2 252.11C366.44 252.2 366.63 252.39 366.72 252.63L368.06 256.24C368.34 257.01 369.43 257.01 369.71 256.24L371.05 252.63C371.14 252.39 371.33 252.2 371.57 252.11L375.18 250.77C375.95 250.49 375.95 249.4 375.18 249.12L371.57 247.78C371.33 247.69 371.14 247.5 371.05 247.26L369.71 243.65C369.43 242.88 368.34 242.88 368.06 243.65L366.72 247.26C366.63 247.5 366.44 247.69 366.2 247.78L362.59 249.12C361.82 249.4 361.82 250.49 362.59 250.77Z" fill="black"/>
<path d="M374.9 222.17L378.51 223.51C378.75 223.6 378.94 223.79 379.03 224.03L380.37 227.64C380.65 228.41 381.74 228.41 382.02 227.64L383.36 224.03C383.45 223.79 383.64 223.6 383.88 223.51L387.49 222.17C388.26 221.89 388.26 220.8 387.49 220.52L383.88 219.18C383.64 219.09 383.45 218.9 383.36 218.66L382.02 215.05C381.74 214.28 380.65 214.28 380.37 215.05L379.03 218.66C378.94 218.9 378.75 219.09 378.51 219.18L374.9 220.52C374.13 220.8 374.13 221.89 374.9 222.17Z" fill="black"/>
<path d="M222.84 30.4299L226.45 31.7699C226.69 31.8599 226.88 32.0499 226.97 32.2899L228.31 35.8999C228.59 36.6699 229.68 36.6699 229.96 35.8999L231.3 32.2899C231.39 32.0499 231.58 31.8599 231.82 31.7699L235.43 30.4299C236.2 30.1499 236.2 29.0599 235.43 28.7799L231.82 27.4399C231.58 27.3499 231.39 27.1599 231.3 26.9199L229.96 23.3099C229.68 22.5399 228.59 22.5399 228.31 23.3099L226.97 26.9199C226.88 27.1599 226.69 27.3499 226.45 27.4399L222.84 28.7799C222.07 29.0599 222.07 30.1499 222.84 30.4299Z" fill="black"/>
<path d="M272.94 88.6595L271.6 92.2695C271.51 92.5095 271.32 92.6995 271.08 92.7895L267.47 94.1295C266.7 94.4095 266.7 95.4995 267.47 95.7795L271.08 97.1195C271.32 97.2095 271.51 97.3995 271.6 97.6395L272.94 101.25C273.22 102.02 274.31 102.02 274.59 101.25L275.93 97.6395C276.02 97.3995 276.21 97.2095 276.45 97.1195L280.06 95.7795C280.83 95.4995 280.83 94.4095 280.06 94.1295L276.45 92.7895C276.21 92.6995 276.02 92.5095 275.93 92.2695L274.59 88.6595C274.31 87.8895 273.22 87.8895 272.94 88.6595Z" fill="black"/>
<path d="M233.01 90.9202L226.27 93.4102C224.84 93.9402 224.84 95.9602 226.27 96.4902L233.01 98.9802C233.46 99.1502 233.81 99.5002 233.98 99.9502L236.47 106.69C237 108.12 239.02 108.12 239.55 106.69L242.04 99.9502C242.21 99.5002 242.56 99.1502 243.01 98.9802L249.75 96.4902C251.18 95.9602 251.18 93.9402 249.75 93.4102L243.01 90.9202C242.56 90.7502 242.21 90.4002 242.04 89.9502L239.55 83.2102C239.02 81.7802 237 81.7802 236.47 83.2102L233.98 89.9502C233.81 90.4002 233.46 90.7502 233.01 90.9202Z" fill="black"/>
<path d="M244.35 14.3603L251.09 16.8503C251.54 17.0203 251.89 17.3703 252.06 17.8203L254.55 24.5603C255.08 25.9903 257.1 25.9903 257.63 24.5603L260.12 17.8203C260.29 17.3703 260.64 17.0203 261.09 16.8503L267.83 14.3603C269.26 13.8303 269.26 11.8103 267.83 11.2803L261.09 8.79031C260.64 8.62031 260.29 8.27031 260.12 7.82031L257.63 1.08031C257.1 -0.349687 255.08 -0.349687 254.55 1.08031L252.06 7.82031C251.89 8.27031 251.54 8.62031 251.09 8.79031L244.35 11.2803C242.92 11.8103 242.92 13.8303 244.35 14.3603Z" fill="black"/>
<path d="M357.02 193.56L354.53 186.82C354 185.39 351.98 185.39 351.45 186.82L348.96 193.56C348.79 194.01 348.44 194.36 347.99 194.53L341.25 197.02C339.82 197.55 339.82 199.57 341.25 200.1L347.99 202.59C348.44 202.76 348.79 203.11 348.96 203.56L351.45 210.3C351.98 211.73 354 211.73 354.53 210.3L357.02 203.56C357.19 203.11 357.54 202.76 357.99 202.59L364.73 200.1C366.16 199.57 366.16 197.55 364.73 197.02L357.99 194.53C357.54 194.36 357.19 194.01 357.02 193.56Z" fill="black"/>
</g>
<defs>
<clipPath id="clip0_621_8924">
<rect width="450.23" height="479.59" fill="white"/>
</clipPath>
</defs>
</svg>
